<?xml version="1.0" encoding="UTF-8"?>
<svg xmlns="http://www.w3.org/2000/svg" xmlns:xlink="http://www.w3.org/1999/xlink" width="16pt" height="16pt" viewBox="0 0 16 16" version="1.1">
<g id="surface154215">
<path style=" stroke:none;fill-rule:nonzero;fill:rgb(100%,100%,100%);fill-opacity:1;" d="M 8 1.332031 C 5.828125 1.332031 3.898438 2.386719 2.679688 4 L 2.667969 4 L 2.667969 4.019531 C 1.832031 5.132812 1.332031 6.507812 1.332031 8 C 1.332031 11.675781 4.324219 14.667969 8 14.667969 C 11.675781 14.667969 14.667969 11.675781 14.667969 8 C 14.667969 4.324219 11.675781 1.332031 8 1.332031 Z M 10 3.054688 C 11.957031 3.84375 13.332031 5.753906 13.332031 8 C 13.332031 9.390625 12.800781 10.652344 11.933594 11.601562 C 11.761719 11.058594 11.261719 10.667969 10.667969 10.667969 C 10.296875 10.667969 10 10.367188 10 10 L 10 8.667969 C 10 8.296875 9.703125 8 9.332031 8 L 6.667969 8 C 6.296875 8 6 7.703125 6 7.332031 C 6 6.964844 6.296875 6.667969 6.667969 6.667969 C 7.035156 6.667969 7.332031 6.367188 7.332031 6 L 7.332031 5.332031 C 7.332031 4.964844 7.632812 4.667969 8 4.667969 L 8.667969 4.667969 C 9.402344 4.667969 10 4.070312 10 3.332031 Z M 2.804688 6.804688 L 6 10 L 6 10.667969 C 6 11.402344 6.597656 12 7.332031 12 L 7.332031 13.289062 C 4.695312 12.960938 2.667969 10.726562 2.667969 8 C 2.667969 7.589844 2.71875 7.1875 2.804688 6.804688 Z M 2.804688 6.804688 "/>
</g>
</svg>
