<?xml version="1.0" encoding="iso-8859-1"?>
<!-- Generator: Adobe Illustrator 19.0.0, SVG Export Plug-In . SVG Version: 6.00 Build 0)  -->
<svg version="1.1" id="Capa_1" xmlns="http://www.w3.org/2000/svg" xmlns:xlink="http://www.w3.org/1999/xlink" x="0px" y="0px"
	 viewBox="0 0 512 512" style="enable-background:new 0 0 512 512;" xml:space="preserve">
<path style="fill:#E978A0;" d="M418.38,181v-15.683c0-3.48-2.821-6.301-6.301-6.301h-97.292c-3.48,0-6.301,2.821-6.301,6.301V181
	H203.514v-15.683c0-3.48-2.821-6.301-6.301-6.301H99.921c-3.48,0-6.301,2.821-6.301,6.301V181H65.968
	c-2.237,0-4.051,1.814-4.051,4.051v33.379c0,2.237,1.813,4.05,4.051,4.05h380.064c2.237,0,4.051-1.813,4.051-4.05v-33.379
	c0-2.237-1.814-4.051-4.051-4.051L418.38,181L418.38,181z"/>
<rect x="105.65" y="159.021" style="opacity:0.1;enable-background:new    ;" width="85.84" height="63.46"/>
<rect x="320.51" y="159.021" style="opacity:0.1;enable-background:new    ;" width="85.84" height="63.46"/>
<path style="fill:#485358;" d="M469.098,90.116H42.902c-5.223,0-10.071-2.716-12.798-7.171L1.103,35.57
	c-3.026-4.942,0.531-11.29,6.326-11.29h497.142c5.795,0,9.352,6.347,6.326,11.29l-29.002,47.375
	C479.168,87.4,474.321,90.116,469.098,90.116z"/>
<path style="opacity:0.1;enable-background:new    ;" d="M96.973,82.946L67.971,35.57c-3.026-4.942,0.531-11.29,6.326-11.29H7.429
	c-5.795,0-9.351,6.347-6.326,11.29l29.002,47.375c2.727,4.455,7.574,7.171,12.798,7.171h66.868
	C104.548,90.117,99.7,87.4,96.973,82.946z"/>
<path style="fill:#E978A0;" d="M435.768,131.596H76.232c-4.794,0-8.931-3.36-9.914-8.052l-7.006-33.428h393.377l-7.006,33.428
	C444.699,128.236,440.562,131.596,435.768,131.596z"/>
<path style="opacity:0.1;enable-background:new    ;" d="M115.234,123.544l-7.006-33.428H59.312l7.006,33.428
	c0.983,4.692,5.121,8.052,9.914,8.052h48.916C120.355,131.596,116.217,128.236,115.234,123.544z"/>
<path style="fill:#E978A0;" d="M174.82,487.721h-52.508c-4.911,0-8.868-4.028-8.78-8.939l6.228-347.186h57.612l6.228,347.186
	C183.689,483.693,179.732,487.721,174.82,487.721z"/>
<g>
	<path style="fill:#FFFFFF;" d="M189.132,64.594c-4.143,0-7.5-3.358-7.5-7.5v-11.1c0-4.142,3.357-7.5,7.5-7.5s7.5,3.358,7.5,7.5
		v11.1C196.632,61.236,193.274,64.594,189.132,64.594z"/>
	<path style="fill:#FFFFFF;" d="M322.868,64.594c-4.143,0-7.5-3.358-7.5-7.5v-11.1c0-4.142,3.357-7.5,7.5-7.5s7.5,3.358,7.5,7.5
		v11.1C330.368,61.236,327.011,64.594,322.868,64.594z"/>
	<path style="fill:#FFFFFF;" d="M256,73.118c-8.924,0-17.41-3.865-23.284-10.604c-2.721-3.123-2.396-7.86,0.727-10.582
		c3.122-2.722,7.859-2.397,10.582,0.726c3.023,3.47,7.389,5.459,11.976,5.459c4.587,0,8.952-1.99,11.976-5.459
		c2.723-3.123,7.459-3.448,10.582-0.726c3.123,2.721,3.447,7.459,0.727,10.582C273.41,69.253,264.924,73.118,256,73.118z"/>
</g>
<polygon style="opacity:0.1;enable-background:new    ;" points="177.373,131.596 119.761,131.596 119.378,152.918 177.755,152.918 
	"/>
<path style="fill:#485358;" d="M182.726,430.04h-68.319l-0.874,48.742c-0.088,4.911,3.869,8.939,8.78,8.939h52.508
	c4.912,0,8.868-4.028,8.78-8.939L182.726,430.04z"/>
<path style="fill:#E978A0;" d="M337.18,487.721h52.508c4.911,0,8.868-4.028,8.78-8.939l-6.228-347.186h-57.612L328.4,478.782
	C328.311,483.693,332.268,487.721,337.18,487.721z"/>
<polygon style="opacity:0.1;enable-background:new    ;" points="334.627,131.596 392.24,131.596 392.622,152.918 334.245,152.918 
	"/>
<path style="fill:#485358;" d="M329.274,430.04h68.319l0.874,48.742c0.088,4.911-3.869,8.939-8.78,8.939H337.18
	c-4.911,0-8.868-4.028-8.78-8.939L329.274,430.04z"/>
<g>
</g>
<g>
</g>
<g>
</g>
<g>
</g>
<g>
</g>
<g>
</g>
<g>
</g>
<g>
</g>
<g>
</g>
<g>
</g>
<g>
</g>
<g>
</g>
<g>
</g>
<g>
</g>
<g>
</g>
</svg>
