<?xml version="1.0" encoding="iso-8859-1"?>
<!-- Generator: Adobe Illustrator 19.0.0, SVG Export Plug-In . SVG Version: 6.00 Build 0)  -->
<svg version="1.1" id="Capa_1" xmlns="http://www.w3.org/2000/svg" xmlns:xlink="http://www.w3.org/1999/xlink" x="0px" y="0px"
	 viewBox="0 0 512 512" style="enable-background:new 0 0 512 512;" xml:space="preserve">
<path style="fill:#F3CE72;" d="M450.694,114.784c-12.582,12.582-51.121,30.722-63.703,18.14s5.558-51.121,18.14-63.703
	c12.582-12.582,32.982-12.582,45.564,0C463.276,81.802,463.276,102.202,450.694,114.784z"/>
<path style="opacity:0.1;enable-background:new    ;" d="M450.694,114.784c-12.582,12.582-51.121,30.722-63.703,18.14
	s5.558-51.121,18.14-63.703c12.582-12.582,32.982-12.582,45.564,0C463.276,81.802,463.276,102.202,450.694,114.784z"/>
<path style="fill:#F3CE72;" d="M416.457,194.493c-12.582-12.582-30.722-51.121-18.14-63.703
	c12.582-12.582,51.121,5.558,63.703,18.14s12.582,32.981,0,45.564C449.439,207.075,429.039,207.075,416.457,194.493z"/>
<path style="opacity:0.1;enable-background:new    ;" d="M416.457,194.493c-12.582-12.582-30.722-51.121-18.14-63.703
	c12.582-12.582,51.121,5.558,63.703,18.14s12.582,32.981,0,45.564C449.439,207.075,429.039,207.075,416.457,194.493z"/>
<g>
	<circle style="fill:#F0BDD5;" cx="100.8" cy="419.59" r="23.511"/>
	<circle style="fill:#F0BDD5;" cx="220" cy="450.7" r="23.511"/>
	<circle style="fill:#F0BDD5;" cx="28.29" cy="321.22" r="23.511"/>
	<circle style="fill:#F0BDD5;" cx="292" cy="450.7" r="23.511"/>
	<circle style="fill:#F0BDD5;" cx="483.71" cy="321.22" r="23.511"/>
</g>
<path style="fill:#E978A0;" d="M59.573,246.667c19.869,3.668,40.078,5.442,60.28,5.554c24.761,0.136,50.218-2.404,74.72-5.908
	l2.048-0.287c25.994-3.644,50.021,14.474,53.666,40.469c3.642,25.978-14.45,49.99-40.418,53.659
	c-28.749,4.062-60.48,1.99-89.389,0.321c-32.942-1.901-68.682-5.925-98.368-20.873C2.298,309.624-5.677,285.474,4.3,265.66
	c8.43-16.743,26.981-25.032,44.484-21.18C52.368,245.272,55.965,246.001,59.573,246.667z"/>
<path style="opacity:0.1;enable-background:new    ;" d="M219.209,323.264c-28.75,4.062-60.48,1.99-89.389,0.321
	c-32.942-1.901-68.682-5.925-98.368-20.873c-17.322-8.722-25.594-28.275-20.736-46.295c-2.502,2.702-4.677,5.789-6.416,9.243
	c-9.977,19.814-2.002,43.964,17.812,53.941c29.686,14.948,65.426,18.972,98.368,20.873c28.909,1.669,60.64,3.74,89.389-0.321
	c18.811-2.658,33.481-15.994,38.759-33.016C241.368,315.609,231.122,321.581,219.209,323.264z"/>
<path style="fill:#E978A0;" d="M72.046,341.969c12.793-6.786,25.27-14.181,36.858-23.321c25.361-20.003,47.104-43.067,70.157-65.512
	c18.009-17.534,47.126-18.417,65.746-1.223c19.285,17.807,20.482,47.876,2.675,67.161c-13.18,14.273-29.655,26.557-44.883,38.55
	c-19.977,15.733-40.681,31.09-62.792,43.714c-15.984,9.165-32.562,16.695-50.6,20.718c-21.652,4.829-43.119-8.808-47.949-30.46
	c-4.081-18.296,5.024-36.46,21.008-44.565C65.54,345.37,68.804,343.689,72.046,341.969z"/>
<path style="opacity:0.1;enable-background:new    ;" d="M255.496,266.44c-4.068-2.892-8.654-5.197-13.691-6.731
	c-16.339-4.977-34.496-0.619-46.812,11.214c-14.67,14.096-17.904,37.787-24.723,56.149c-10.139,27.305-22.318,53.944-38.034,78.445
	c2.54-1.35,5.064-2.742,7.572-4.18c22.111-12.623,42.815-27.98,62.792-43.714c15.228-11.993,31.703-24.277,44.883-38.55
	C261.042,304.388,263.57,283.455,255.496,266.44z"/>
<g>
	<path style="fill:#E978A0;" d="M151.192,409.137c14.59-29.947,23.86-62.149,30.365-94.787c3.828-19.209,3.273-43.114,15.529-59.353
		c10.289-13.632,27.529-20.808,44.449-18.478c26.003,3.58,44.181,27.563,40.601,53.566c-0.177,1.287-0.404,2.555-0.679,3.802
		c0,0-0.044,0.184-0.044,0.185c-6.648,28.049-14.227,55.961-23.746,83.182c-10.323,29.521-22.451,61.021-43.581,84.662l-2.901,3.161
		c-15,16.344-40.41,17.433-56.754,2.432c-13.808-12.674-16.728-32.777-8.255-48.566
		C147.915,415.704,149.586,412.434,151.192,409.137z"/>
	<path style="fill:#E978A0;" d="M452.427,246.667c-19.869,3.668-40.078,5.442-60.28,5.554c-24.761,0.136-50.218-2.404-74.72-5.908
		l-2.048-0.287c-25.995-3.644-50.022,14.474-53.666,40.469c-3.642,25.978,14.45,49.99,40.418,53.659
		c28.749,4.062,60.48,1.99,89.389,0.321c32.942-1.901,68.682-5.925,98.368-20.873c19.814-9.977,27.789-34.127,17.812-53.941
		c-8.43-16.743-26.981-25.032-44.484-21.18C459.632,245.272,456.035,246.001,452.427,246.667z"/>
</g>
<path style="opacity:0.1;enable-background:new    ;" d="M292.791,323.264c28.75,4.062,60.481,1.99,89.389,0.321
	c32.942-1.901,68.682-5.925,98.368-20.873c17.322-8.722,25.594-28.275,20.736-46.295c2.502,2.702,4.677,5.789,6.416,9.243
	c9.977,19.814,2.002,43.964-17.812,53.941c-29.686,14.948-65.426,18.972-98.368,20.873c-28.909,1.669-60.64,3.74-89.389-0.321
	c-18.811-2.658-33.481-15.994-38.759-33.016C270.632,315.609,280.879,321.581,292.791,323.264z"/>
<circle style="fill:#F0BDD5;" cx="411.2" cy="419.59" r="23.511"/>
<path style="fill:#E978A0;" d="M439.954,341.969c-12.793-6.786-25.27-14.181-36.858-23.321
	c-25.361-20.003-47.104-43.067-70.157-65.512c-18.009-17.534-47.126-18.417-65.746-1.223c-19.285,17.807-20.482,47.876-2.675,67.161
	c13.18,14.273,29.655,26.557,44.883,38.55c19.977,15.733,40.681,31.09,62.792,43.714c15.984,9.165,32.563,16.695,50.6,20.718
	c21.652,4.829,43.12-8.808,47.949-30.46c4.081-18.296-5.024-36.46-21.008-44.565C446.46,345.37,443.197,343.689,439.954,341.969z"/>
<path style="opacity:0.1;enable-background:new    ;" d="M256.505,266.44c4.068-2.892,8.654-5.197,13.691-6.731
	c16.339-4.977,34.496-0.619,46.812,11.214c14.67,14.096,17.904,37.787,24.723,56.149c10.139,27.305,22.318,53.944,38.034,78.445
	c-2.54-1.35-5.065-2.742-7.572-4.18c-22.111-12.623-42.815-27.98-62.792-43.714c-15.228-11.993-31.703-24.277-44.883-38.55
	C250.958,304.388,248.43,283.455,256.505,266.44z"/>
<g>
	<path style="fill:#E978A0;" d="M360.808,409.137c-14.59-29.947-23.86-62.149-30.365-94.787
		c-3.828-19.209-3.273-43.114-15.529-59.353c-10.289-13.632-27.529-20.808-44.449-18.478c-26.004,3.58-44.181,27.563-40.601,53.566
		c0.177,1.287,0.404,2.555,0.679,3.802c0,0,0.044,0.184,0.044,0.185c6.648,28.049,14.227,55.961,23.746,83.182
		c10.323,29.521,22.451,61.021,43.581,84.662l2.901,3.161c15,16.344,40.41,17.433,56.754,2.432
		c13.808-12.674,16.728-32.777,8.255-48.566C364.085,415.704,362.414,412.434,360.808,409.137z"/>
	<circle style="fill:#E978A0;" cx="256" cy="208.82" r="174.9"/>
</g>
<path style="opacity:0.1;enable-background:new    ;" d="M424.413,161.537c0.005,0,0.01-0.001,0.015-0.001
	c-3.436-12.265-8.178-23.983-14.063-34.999H127.478c27.524-51.527,80.086-87.664,141.443-92.146
	c-4.267-0.312-8.575-0.476-12.921-0.476c-96.595,0-174.901,78.306-174.901,174.901c0,45.62,17.466,87.16,46.076,118.299
	c2.965,3.228,7.678,4.166,11.632,2.275l0,0c5.68-2.716,7.413-9.952,3.608-14.967c-22.263-29.344-35.473-65.933-35.473-105.607
	c0-16.385,2.264-32.24,6.477-47.279L424.413,161.537L424.413,161.537z"/>
<g>
	<path style="fill:#485358;" d="M169.394,224.583c-4.142,0-7.5-3.358-7.5-7.5v-14.771c0-4.142,3.358-7.5,7.5-7.5s7.5,3.358,7.5,7.5
		v14.771C176.894,221.225,173.536,224.583,169.394,224.583z"/>
	<path style="fill:#485358;" d="M342.606,224.583c-4.143,0-7.5-3.358-7.5-7.5v-14.771c0-4.142,3.357-7.5,7.5-7.5s7.5,3.358,7.5,7.5
		v14.771C350.106,221.225,346.749,224.583,342.606,224.583z"/>
	<path style="fill:#485358;" d="M281.843,228.386c0,14.072-11.658,25.422-25.842,24.917c-13.511-0.48-24.024-11.995-24.024-25.515
		v-17.537c0-3.755,3.044-6.798,6.798-6.798h36.27c3.755,0,6.798,3.044,6.798,6.798V228.386z"/>
</g>
<path style="fill:#F3CE72;" d="M424.413,148.907H89.102c-9.665,0-17.5-7.835-17.5-17.5s7.835-17.5,17.5-17.5h335.311
	c9.665,0,17.5,7.835,17.5,17.5S434.078,148.907,424.413,148.907z"/>
<path style="opacity:0.1;enable-background:new    ;" d="M95.819,131.407c0-9.665,7.835-17.5,17.5-17.5H89.102
	c-9.665,0-17.5,7.835-17.5,17.5s7.835,17.5,17.5,17.5h24.217C103.654,148.907,95.819,141.072,95.819,131.407z"/>
<path style="opacity:0.1;enable-background:new    ;" d="M228.803,148.907h21.213l35-35h-21.214L228.803,148.907z M119.228,148.907
	h21.213l35-35h-21.213L119.228,148.907z M371.559,113.907l-35,35h21.214l35-35H371.559z"/>
<g>
</g>
<g>
</g>
<g>
</g>
<g>
</g>
<g>
</g>
<g>
</g>
<g>
</g>
<g>
</g>
<g>
</g>
<g>
</g>
<g>
</g>
<g>
</g>
<g>
</g>
<g>
</g>
<g>
</g>
</svg>
