<?xml version="1.0" encoding="iso-8859-1"?>
<!-- Generator: Adobe Illustrator 19.0.0, SVG Export Plug-In . SVG Version: 6.00 Build 0)  -->
<svg version="1.1" id="Capa_1" xmlns="http://www.w3.org/2000/svg" xmlns:xlink="http://www.w3.org/1999/xlink" x="0px" y="0px"
	 viewBox="0 0 512 512" style="enable-background:new 0 0 512 512;" xml:space="preserve">
<g>
	<path style="fill:#F0BDD5;" d="M61.411,230.509L61.411,230.509c-31.357-4.082-53.468-32.812-49.385-64.169l2.582-19.834
		c2.041-15.679,16.406-26.734,32.085-24.692l0,0c15.679,2.041,26.734,16.406,24.692,32.084L61.411,230.509z"/>
	<path style="fill:#F0BDD5;" d="M167.269,228.498L167.269,228.498c29.11,12.35,62.721-1.236,75.071-30.346l7.812-18.412
		c6.175-14.555-0.618-31.36-15.173-37.535l0,0c-14.555-6.175-31.36,0.618-37.536,15.173L167.269,228.498z"/>
	<path style="fill:#F0BDD5;" d="M374.206,8.318L374.206,8.318c0-4.594-3.724-8.318-8.318-8.318H332.9
		c-34.562,0-62.579,28.018-62.579,62.579v16.637c0,34.562,28.018,62.579,62.579,62.579h32.988c4.594,0,8.318-3.724,8.318-8.318l0,0
		c0-34.562-28.018-62.579-62.579-62.579C346.188,70.898,374.206,42.88,374.206,8.318z"/>
</g>
<g>
	<path style="opacity:0.3;fill:#C06376;enable-background:new    ;" d="M283.237,47.727l-11.017-0.484
		c-1.237,4.908-1.9,10.044-1.9,15.336v16.637c0,5.902,0.835,11.606,2.362,17.019c3.967-1.039,8.048-1.813,12.226-2.301
		c11.689-1.365,20.503-11.268,20.503-23.036l0,0C305.412,58.485,295.638,48.272,283.237,47.727z"/>
	<path style="opacity:0.3;fill:#C06376;enable-background:new    ;" d="M197.443,157.377l-30.174,71.121l0,0
		c13.753,5.835,28.508,5.874,41.553,1.229v-47.983c0-15.313,4.545-29.658,12.4-41.7C211.053,140.971,201.71,147.32,197.443,157.377z
		"/>
	<path style="opacity:0.3;fill:#C06376;enable-background:new    ;" d="M61.819,128.632c-17.27,24.49-29.709,52.624-35.908,83.006
		c8.846,10.018,21.206,17.01,35.5,18.871l9.974-76.611C72.668,144.046,68.777,134.715,61.819,128.632z"/>
</g>
<path style="fill:#E978A0;" d="M196.822,256v-74.257c0-44.859,33.596-82.606,78.152-87.809l0,0
	c11.689-1.365,20.503-11.268,20.503-23.036l0,0c0-12.413-9.773-22.625-22.174-23.171l-21.248-0.934
	C132.907,41.555,33.449,136.737,33.449,256l0,0c0,45.114,36.572,81.687,81.687,81.687C160.25,337.687,196.822,301.114,196.822,256z"
	/>
<path style="fill:#C06376;" d="M114.317,244.643c-25.15,0-49.25-26.621-79.596-11.786c-0.834,7.597-1.273,15.316-1.273,23.142l0,0
	c0,45.114,36.573,81.687,81.687,81.687s81.687-36.572,81.687-81.687v-21.6C165.096,216.307,140.266,244.643,114.317,244.643z"/>
<path style="opacity:0.1;enable-background:new    ;" d="M273.645,47.751c-0.114-0.007-0.227-0.018-0.342-0.023l-21.248-0.934
	C132.907,41.555,33.449,136.737,33.449,256l0,0c0,45.114,36.573,81.687,81.687,81.687c5.806,0,11.467-0.616,16.931-1.768
	c-34.808-9.355-60.438-41.116-60.438-78.878l0,0C71.628,143.359,161.996,51.557,273.645,47.751z"/>
<g>
	<path style="fill:#485358;" d="M67.345,293.62c-4.143,0-7.5-3.358-7.5-7.5v-7.797c0-4.142,3.357-7.5,7.5-7.5s7.5,3.358,7.5,7.5
		v7.797C74.845,290.262,71.487,293.62,67.345,293.62z"/>
	<path style="fill:#485358;" d="M161.29,293.62c-4.142,0-7.5-3.358-7.5-7.5v-7.797c0-4.142,3.358-7.5,7.5-7.5
		c4.143,0,7.5,3.358,7.5,7.5v7.797C168.79,290.262,165.433,293.62,161.29,293.62z"/>
</g>
<path style="fill:#F0BDD5;" d="M98.135,262.793c0.72-18.436,1.859-37.285,4.969-56.25c3.102-18.919,8.298-38.064,17.109-55.84
	c4.411-8.864,9.706-17.327,15.799-25.119c6.088-7.798,12.964-14.912,20.376-21.252c14.82-12.769,31.758-22.136,49.057-29.539
	c4.311-1.845,9.301,0.154,11.146,4.465c1.753,4.095,0.036,8.804-3.836,10.846l-0.148,0.077c-15.48,8.11-29.987,17.784-41.844,29.774
	c-11.93,11.902-21.172,25.9-27.332,41.259c-6.164,15.382-9.377,31.998-10.82,49.068c-1.449,17.092-1.181,34.641-0.476,52.511
	c0.37,9.389-6.94,17.3-16.329,17.671s-17.3-6.94-17.671-16.329c-0.017-0.435-0.018-0.868-0.003-1.296L98.135,262.793z"/>
<g>
	<path style="fill:#88DEDC;" d="M450.589,281.491L450.589,281.491c31.357,4.083,53.468,32.812,49.385,64.169l-2.582,19.834
		c-2.041,15.679-16.406,26.734-32.085,24.693l0,0c-15.678-2.041-26.734-16.406-24.692-32.085L450.589,281.491z"/>
	<path style="fill:#88DEDC;" d="M344.731,283.502L344.731,283.502c-29.11-12.35-62.721,1.236-75.071,30.346l-7.812,18.412
		c-6.175,14.555,0.618,31.36,15.173,37.535l0,0c14.555,6.175,31.36-0.618,37.536-15.173L344.731,283.502z"/>
	<path style="fill:#88DEDC;" d="M137.794,503.682L137.794,503.682c0,4.594,3.724,8.318,8.318,8.318H179.1
		c34.562,0,62.579-28.018,62.579-62.579v-16.637c0-34.562-28.018-62.579-62.579-62.579h-32.988c-4.594,0-8.318,3.724-8.318,8.318
		l0,0c0,34.562,28.018,62.579,62.579,62.579C165.812,441.102,137.794,469.12,137.794,503.682z"/>
</g>
<g>
	<path style="opacity:0.3;fill:#51B4DB;enable-background:new    ;" d="M228.762,464.273l11.017,0.484
		c1.237-4.908,1.9-10.044,1.9-15.337v-16.637c0-5.902-0.835-11.606-2.362-17.019c-3.967,1.039-8.048,1.813-12.226,2.301
		c-11.689,1.365-20.503,11.268-20.503,23.036l0,0C206.588,453.515,216.362,463.728,228.762,464.273z"/>
	<path style="opacity:0.3;fill:#51B4DB;enable-background:new    ;" d="M314.557,354.623l30.174-71.121l0,0
		c-13.753-5.835-28.508-5.874-41.553-1.229v47.983c0,15.313-4.545,29.658-12.4,41.7C300.947,371.029,310.29,364.681,314.557,354.623
		z"/>
	<path style="opacity:0.3;fill:#51B4DB;enable-background:new    ;" d="M450.181,383.368c17.27-24.49,29.709-52.624,35.908-83.006
		c-8.846-10.018-21.206-17.01-35.5-18.871l-9.974,76.611C439.332,367.954,443.223,377.285,450.181,383.368z"/>
	<path style="fill:#51B4DB;" d="M315.178,256v74.257c0,44.859-33.596,82.606-78.152,87.809l0,0
		c-11.689,1.365-20.503,11.268-20.503,23.036l0,0c0,12.413,9.773,22.625,22.174,23.171l21.248,0.934
		C379.093,470.445,478.551,375.263,478.551,256l0,0c0-45.114-36.572-81.687-81.687-81.687
		C351.75,174.313,315.178,210.886,315.178,256z"/>
</g>
<path style="fill:#4D94AE;" d="M397.683,267.357c25.15,0,49.25,26.621,79.596,11.786c0.834-7.597,1.273-15.316,1.273-23.142l0,0
	c0-45.114-36.573-81.687-81.687-81.687s-81.687,36.572-81.687,81.687v21.6C346.904,295.693,371.734,267.357,397.683,267.357z"/>
<path style="opacity:0.1;enable-background:new    ;" d="M396.865,174.313c-45.114,0-81.687,36.572-81.687,81.687v74.257
	c0,44.859-33.596,82.607-78.152,87.809l0,0c-11.689,1.365-20.503,11.268-20.503,23.036l0,0c0,12.413,9.773,22.625,22.174,23.171
	l6.743,0.296c-0.298-0.282-0.607-0.716-1.137-0.881c-12.823-3.997-17.636-28.747,4.46-28.747s106.849-27.273,101.947-125.322
	C344.829,191.972,374.26,186.107,396.865,174.313z"/>
<g>
	<path style="fill:#485358;" d="M444.655,241.177c-4.143,0-7.5-3.358-7.5-7.5v-7.797c0-4.142,3.357-7.5,7.5-7.5s7.5,3.358,7.5,7.5
		v7.797C452.155,237.819,448.798,241.177,444.655,241.177z"/>
	<path style="fill:#485358;" d="M350.71,241.177c-4.143,0-7.5-3.358-7.5-7.5v-7.797c0-4.142,3.357-7.5,7.5-7.5s7.5,3.358,7.5,7.5
		v7.797C358.21,237.819,354.853,241.177,350.71,241.177z"/>
</g>
<path style="fill:#88DEDC;" d="M413.865,249.207c-0.72,18.436-1.859,37.285-4.969,56.25c-3.102,18.919-8.298,38.064-17.109,55.84
	c-4.411,8.864-9.706,17.327-15.799,25.119c-6.088,7.798-12.964,14.912-20.376,21.252c-14.82,12.769-31.758,22.136-49.057,29.539
	c-4.311,1.845-9.301-0.154-11.146-4.465c-1.753-4.095-0.036-8.804,3.836-10.846l0.148-0.077c15.48-8.11,29.987-17.784,41.844-29.774
	c11.93-11.902,21.172-25.9,27.332-41.259c6.164-15.382,9.377-31.998,10.82-49.068c1.449-17.092,1.181-34.641,0.476-52.511
	c-0.37-9.389,6.941-17.3,16.329-17.671c9.389-0.371,17.3,6.94,17.671,16.329c0.017,0.435,0.018,0.868,0.003,1.296L413.865,249.207z"
	/>
<g>
</g>
<g>
</g>
<g>
</g>
<g>
</g>
<g>
</g>
<g>
</g>
<g>
</g>
<g>
</g>
<g>
</g>
<g>
</g>
<g>
</g>
<g>
</g>
<g>
</g>
<g>
</g>
<g>
</g>
</svg>
