<?xml version="1.0" encoding="iso-8859-1"?>
<!-- Generator: Adobe Illustrator 19.0.0, SVG Export Plug-In . SVG Version: 6.00 Build 0)  -->
<svg version="1.1" id="Capa_1" xmlns="http://www.w3.org/2000/svg" xmlns:xlink="http://www.w3.org/1999/xlink" x="0px" y="0px"
	 viewBox="0 0 512 512" style="enable-background:new 0 0 512 512;" xml:space="preserve">
<path style="fill:#51B4DB;" d="M40.079,354.432c-11.635,11.635-12.677,29.456-2.327,39.806c10.349,10.349,28.171,9.308,39.806-2.327
	c11.635-11.635,5.48-22.26-4.87-32.609C62.339,348.952,51.714,342.797,40.079,354.432z"/>
<g transform="matrix(0.7071 0.7071 -0.7071 0.7071 238.28 -35.664)">
	<rect x="135.31" y="224.59" style="fill:#E7EEEF;" width="53.759" height="90.42"/>
	<rect x="135.31" y="224.59" style="opacity:0.15;enable-background:new    ;" width="53.759" height="90.42"/>
</g>
<polygon style="fill:#E7EEEF;" points="89.978,373.644 58.346,342.011 111.215,282.762 149.228,320.775 "/>
<polygon style="opacity:0.15;enable-background:new    ;" points="89.978,373.644 58.346,342.011 111.215,282.762 149.228,320.775 
	"/>
<g>
	<path style="fill:#E7EEEF;" d="M133.717,323.227l-24.955-24.955c-3.606-3.606-3.606-9.452,0-13.058l4.905-4.905
		c3.606-3.606,9.452-3.606,13.058,0l24.955,24.955c3.606,3.606,3.606,9.452,0,13.058l-4.905,4.905
		C143.17,326.833,137.323,326.833,133.717,323.227z"/>
	<path style="fill:#E7EEEF;" d="M92.099,383.621c12.076-12.076,12.076-31.655,0-43.731s-31.655-12.076-43.731,0
		s-4.606,24.185,7.47,36.261S80.023,395.697,92.099,383.621z"/>
</g>
<g>
	<path style="fill:#51B4DB;" d="M26.835,339.769L26.835,339.769c0-5.84,4.734-10.575,10.575-10.575h23.708
		c5.84,0,10.575,4.734,10.575,10.575l0,0c0,5.84-4.734,10.575-10.575,10.575H37.41C31.57,350.343,26.835,345.609,26.835,339.769z"/>
	<path style="fill:#51B4DB;" d="M471.921,354.432c11.635,11.635,12.677,29.456,2.327,39.806
		c-10.349,10.349-28.171,9.308-39.806-2.327s-5.48-22.26,4.87-32.609C449.661,348.952,460.286,342.797,471.921,354.432z"/>
</g>
<g transform="matrix(-0.7071 0.7071 -0.7071 -0.7071 787.94 213.22)">
	<rect x="322.93" y="224.59" style="fill:#E7EEEF;" width="53.759" height="90.42"/>
	<rect x="322.93" y="224.59" style="opacity:0.15;enable-background:new    ;" width="53.759" height="90.42"/>
</g>
<polygon style="fill:#E7EEEF;" points="422.022,373.644 453.654,342.011 400.785,282.762 362.772,320.775 "/>
<polygon style="opacity:0.15;enable-background:new    ;" points="422.022,373.644 453.654,342.011 400.785,282.762 
	362.772,320.775 "/>
<g>
	<path style="fill:#E7EEEF;" d="M378.283,323.227l24.955-24.955c3.606-3.606,3.606-9.452,0-13.058l-4.905-4.905
		c-3.606-3.606-9.452-3.606-13.058,0l-24.955,24.955c-3.606,3.606-3.606,9.452,0,13.058l4.905,4.905
		C368.83,326.833,374.677,326.833,378.283,323.227z"/>
	<path style="fill:#E7EEEF;" d="M419.901,383.621c-12.076-12.076-12.076-31.655,0-43.731s31.655-12.076,43.731,0
		s4.606,24.185-7.47,36.261S431.977,395.697,419.901,383.621z"/>
</g>
<path style="fill:#51B4DB;" d="M485.165,339.769L485.165,339.769c0-5.84-4.734-10.575-10.575-10.575h-23.708
	c-5.84,0-10.575,4.734-10.575,10.575l0,0c0,5.84,4.734,10.575,10.575,10.575h23.708
	C480.431,350.343,485.165,345.609,485.165,339.769z"/>
<rect x="278.5" y="357.4" style="fill:#E7EEEF;" width="53.759" height="72.03"/>
<rect x="278.5" y="357.4" style="opacity:0.15;enable-background:new    ;" width="53.759" height="72.03"/>
<rect x="278.5" y="429.43" style="fill:#E7EEEF;" width="53.759" height="61.4"/>
<rect x="278.5" y="429.43" style="opacity:0.15;enable-background:new    ;" width="53.759" height="61.4"/>
<path style="fill:#E7EEEF;" d="M287.73,442.127h35.292c5.099,0,9.233-4.134,9.233-9.234v-6.937c0-5.1-4.134-9.233-9.233-9.233
	H287.73c-5.099,0-9.233,4.134-9.233,9.233v6.937C278.497,437.993,282.631,442.127,287.73,442.127z"/>
<path style="fill:#51B4DB;" d="M279.844,512h51.064c5.512,0,9.775-4.834,9.085-10.303l-0.948-7.517
	c-1.001-7.936-7.751-13.888-15.75-13.888h-35.839c-7.999,0-14.749,5.952-15.75,13.888l-0.948,7.517
	C270.069,507.166,274.332,512,279.844,512z"/>
<rect x="179.74" y="357.4" style="fill:#E7EEEF;" width="53.759" height="72.03"/>
<rect x="179.74" y="357.4" style="opacity:0.15;enable-background:new    ;" width="53.759" height="72.03"/>
<rect x="179.74" y="429.43" style="fill:#E7EEEF;" width="53.759" height="61.4"/>
<rect x="179.74" y="429.43" style="opacity:0.15;enable-background:new    ;" width="53.759" height="61.4"/>
<g>
	<path style="fill:#E7EEEF;" d="M224.27,442.127h-35.292c-5.1,0-9.233-4.134-9.233-9.234v-6.937c0-5.1,4.134-9.233,9.233-9.233
		h35.292c5.1,0,9.233,4.134,9.233,9.233v6.937C233.503,437.993,229.369,442.127,224.27,442.127z"/>
	<path style="fill:#E7EEEF;" d="M309.586,207.49H202.414c-23.101,0-41.827,18.727-41.827,41.827v90.8
		c0,23.101,18.727,41.827,41.827,41.827h107.172c23.101,0,41.827-18.727,41.827-41.827v-90.8
		C351.413,226.217,332.687,207.49,309.586,207.49z"/>
</g>
<g>
	<path style="fill:#51B4DB;" d="M214.379,338.324c-1.196,0-2.409-0.287-3.537-0.891c-3.651-1.957-5.024-6.502-3.067-10.153
		c2.31-4.31,3.531-9.173,3.531-14.063V295.1c0-12.317,5.069-24.355,13.909-33.027c8.698-8.533,20.062-13.142,32.047-12.932
		c11.974-0.197,23.348,4.398,32.047,12.932c8.839,8.672,13.909,20.71,13.909,33.027v18.117c0,4.89,1.221,9.753,3.531,14.064
		c1.956,3.651,0.583,8.197-3.068,10.153c-3.649,1.957-8.196,0.583-10.153-3.068c-3.473-6.482-5.309-13.795-5.309-21.148V295.1
		c0-8.315-3.431-16.45-9.414-22.319c-5.835-5.724-13.456-8.787-21.398-8.64l-0.144,0.003l-0.143-0.003
		c-7.95-0.159-15.564,2.916-21.398,8.64c-5.982,5.869-9.413,14.004-9.413,22.32v18.117c0,7.354-1.836,14.667-5.31,21.149
		C219.644,336.889,217.055,338.324,214.379,338.324z"/>
	<circle style="fill:#51B4DB;" cx="257.26" cy="295.1" r="15.325"/>
	<path style="fill:#51B4DB;" d="M270.686,344.924h-26.848c-4.142,0-7.5-3.358-7.5-7.5s3.358-7.5,7.5-7.5h26.848
		c4.142,0,7.5,3.358,7.5,7.5S274.828,344.924,270.686,344.924z"/>
	<path style="opacity:0.15;fill:#51B4DB;enable-background:new    ;" d="M220.801,340.118v-90.8c0-8.431,2.503-16.273,6.794-22.841
		c36.959,2.675,74.204,0.131,110.616-7.644c-7.483-7.029-17.547-11.343-28.624-11.343H202.414
		c-23.101,0-41.827,18.727-41.827,41.827v90.8c0,23.101,18.727,41.827,41.827,41.827h60.214
		C239.527,381.945,220.801,363.218,220.801,340.118z"/>
	<path style="fill:#51B4DB;" d="M232.156,512h-51.064c-5.512,0-9.775-4.834-9.085-10.303l0.948-7.517
		c1.001-7.936,7.751-13.888,15.75-13.888h35.839c7.999,0,14.749,5.952,15.75,13.888l0.948,7.517
		C241.931,507.166,237.668,512,232.156,512z"/>
</g>
<path style="fill:#E7EEEF;" d="M385.131,191.1L385.131,191.1c-83.639,29.04-174.624,29.04-258.262,0l0,0
	c-12.855-4.463-21.473-16.578-21.473-30.186V61.47c0-13.608,8.618-25.723,21.473-30.186l0,0c83.638-29.04,174.624-29.04,258.262,0
	l0,0c12.855,4.463,21.473,16.578,21.473,30.186v99.444C406.604,174.522,397.986,186.637,385.131,191.1z"/>
<g>
	<path style="opacity:0.1;fill:#51B4DB;enable-background:new    ;" d="M168.606,191.1c-12.855-4.463-21.473-16.578-21.473-30.186
		V61.47c0-13.608,8.618-25.723,21.473-30.186l0,0c35.153-12.205,71.605-19.26,108.263-21.205
		c-50.561-2.684-101.514,4.371-150,21.205l0,0c-12.855,4.463-21.473,16.578-21.473,30.186v99.444
		c0,13.608,8.618,25.723,21.473,30.186l0,0c48.485,16.834,99.439,23.889,150,21.205C240.211,210.36,203.759,203.305,168.606,191.1
		L168.606,191.1z"/>
	<path style="fill:#51B4DB;" d="M178.978,57.147l-11.11-30.509c-3.065-8.416,2.127-17.576,10.922-19.27l0,0
		C204.171,2.479,230.149,0,256,0s51.829,2.479,77.21,7.367l0,0c8.795,1.694,13.987,10.854,10.922,19.27l-11.11,30.509
		c-6.248,17.156-22.557,28.574-40.816,28.574h-72.413C201.535,85.721,185.225,74.303,178.978,57.147z"/>
</g>
<g>
	<path style="fill:#485358;" d="M195.786,141.368c-4.142,0-7.5-3.358-7.5-7.5v-10.27c0-4.142,3.358-7.5,7.5-7.5s7.5,3.358,7.5,7.5
		v10.27C203.286,138.01,199.928,141.368,195.786,141.368z"/>
	<path style="fill:#485358;" d="M316.214,141.368c-4.142,0-7.5-3.358-7.5-7.5v-10.27c0-4.142,3.358-7.5,7.5-7.5s7.5,3.358,7.5,7.5
		v10.27C323.714,138.01,320.356,141.368,316.214,141.368z"/>
	<path style="fill:#485358;" d="M273.967,141.726c0,9.784-8.105,17.675-17.967,17.324c-9.394-0.334-16.703-8.34-16.703-17.739
		v-12.193c0-2.61,2.116-4.727,4.727-4.727h25.217c2.611,0,4.727,2.116,4.727,4.727L273.967,141.726L273.967,141.726z"/>
</g>
<g>
</g>
<g>
</g>
<g>
</g>
<g>
</g>
<g>
</g>
<g>
</g>
<g>
</g>
<g>
</g>
<g>
</g>
<g>
</g>
<g>
</g>
<g>
</g>
<g>
</g>
<g>
</g>
<g>
</g>
</svg>
