<?xml version="1.0" encoding="iso-8859-1"?>
<!-- Generator: Adobe Illustrator 19.0.0, SVG Export Plug-In . SVG Version: 6.00 Build 0)  -->
<svg version="1.1" id="Capa_1" xmlns="http://www.w3.org/2000/svg" xmlns:xlink="http://www.w3.org/1999/xlink" x="0px" y="0px"
	 viewBox="0 0 512 512" style="enable-background:new 0 0 512 512;" xml:space="preserve">
<path style="fill:#7DD49B;" d="M372.047,69.96h-81.973l32.295-64.589c3.581-7.162,13.802-7.162,17.384,0L372.047,69.96z"/>
<path style="opacity:0.3;enable-background:new    ;" d="M372.047,69.96h-81.973l32.295-64.589c3.581-7.162,13.802-7.162,17.384,0
	L372.047,69.96z"/>
<path style="fill:#7DD49B;" d="M300.126,73.101l-68.868,44.46l-7.899-71.779c-0.876-7.96,7.711-13.504,14.605-9.428L300.126,73.101z
	"/>
<path style="opacity:0.3;enable-background:new    ;" d="M300.126,73.101l-68.868,44.46l-7.899-71.779
	c-0.876-7.96,7.711-13.504,14.605-9.428L300.126,73.101z"/>
<path style="fill:#7DD49B;" d="M235.714,126.166l-7.41,81.637l-61.405-38.001c-6.809-4.214-5.885-14.393,1.572-17.313
	L235.714,126.166z"/>
<path style="opacity:0.3;enable-background:new    ;" d="M235.714,126.166l-7.41,81.637l-61.405-38.001
	c-6.809-4.214-5.885-14.393,1.572-17.313L235.714,126.166z"/>
<path style="fill:#7DD49B;" d="M219.978,216.41l-11.537,74.146l-53.877-38.301c-5.975-4.247-4.536-13.493,2.447-15.724
	L219.978,216.41z"/>
<path style="opacity:0.3;enable-background:new    ;" d="M219.978,216.41l-11.537,74.146l-53.877-38.301
	c-5.975-4.247-4.536-13.493,2.447-15.724L219.978,216.41z"/>
<path style="fill:#7DD49B;" d="M190.169,327.296l-18.525,69.292l-47.299-41.895c-5.245-4.646-2.935-13.286,3.928-14.694
	L190.169,327.296z"/>
<path style="opacity:0.3;enable-background:new    ;" d="M190.169,327.296l-18.525,69.292l-47.299-41.895
	c-5.245-4.646-2.935-13.286,3.928-14.694L190.169,327.296z"/>
<path style="fill:#7DD49B;" d="M170.365,423.875l-48.585,37.421l-10.344-53.024c-1.147-5.88,4.911-10.546,10.303-7.936
	L170.365,423.875z"/>
<path style="opacity:0.3;enable-background:new    ;" d="M170.365,423.875l-48.585,37.421l-10.344-53.024
	c-1.147-5.88,4.911-10.546,10.303-7.936L170.365,423.875z"/>
<path style="fill:#7DD49B;" d="M65.086,396.836l-28.851-46.437l47.955-4.438c5.318-0.492,8.915,5.298,6.118,9.848L65.086,396.836z"
	/>
<path style="opacity:0.3;enable-background:new    ;" d="M65.086,396.836l-28.851-46.437l47.955-4.438
	c5.318-0.492,8.915,5.298,6.118,9.848L65.086,396.836z"/>
<path style="fill:#7DD49B;" d="M371.277,327.296c-2.213,0-4.44-0.036-6.698-0.109c-17.634-0.567-31.472-15.321-30.906-32.955
	c0.566-17.635,15.313-31.48,32.955-30.906c50.28,1.625,68.906-23.623,80.519-48.525c7.456-15.991,26.462-22.911,42.456-15.451
	c15.991,7.458,22.908,26.465,15.451,42.456C478.588,298.558,433.596,327.296,371.277,327.296z"/>
<path style="opacity:0.15;enable-background:new    ;" d="M371.277,327.296c-2.213,0-4.44-0.036-6.698-0.109
	c-17.634-0.567-31.472-15.321-30.906-32.955c0.566-17.635,15.313-31.48,32.955-30.906c50.28,1.625,68.906-23.623,80.519-48.525
	c7.456-15.991,26.462-22.911,42.456-15.451c15.991,7.458,22.908,26.465,15.451,42.456
	C478.588,298.558,433.596,327.296,371.277,327.296z"/>
<g>
	<path style="fill:#7DD49B;" d="M400.214,465.084h-10.293V453.28c0-29.65-24.036-53.686-53.686-53.686s-53.686,24.036-53.686,53.686
		v18.024c0,22.476,18.22,40.697,40.696,40.697h104.249c5.422,0,9.818-4.396,9.818-9.818
		C437.311,481.693,420.702,465.084,400.214,465.084z"/>
	<path style="fill:#7DD49B;" d="M464.083,114.905c-4.701-1.94-8.386-5.691-10.528-10.304c-13.22-28.468-42.047-48.216-75.501-48.216
		h-76.048c-45.965,0-83.228,37.262-83.228,83.228l0,0c0,0.353,0.002,0.706,0.007,1.058c0.522,41.647-5.815,83.093-18.897,122.636
		l-56.557,170.948c-1.499,4.53-5.732,7.589-10.503,7.589c-25.434,0-48.751-14.161-60.478-36.73l-32.159-61.891
		c-3.294-6.34-9.726-10.614-16.87-10.719C11.43,332.329,2.31,342.923,4.194,354.618l10.267,63.715
		C23.159,472.314,69.751,512,124.427,512h157.639c51.154,0,92.622-41.468,92.622-92.622V235.035c0-6.734,5.459-12.193,12.193-12.193
		h55.822c30.971,0,56.078-25.107,56.078-56.078l0,0C498.781,143.363,484.449,123.31,464.083,114.905z"/>
</g>
<path style="opacity:0.05;enable-background:new    ;" d="M333.656,56.386h-31.651c-45.965,0-83.228,37.262-83.228,83.228l0,0
	c0,0.353,0.002,0.706,0.007,1.058c0.522,41.647-5.815,83.094-18.897,122.636L143.33,434.255c-1.498,4.53-5.732,7.589-10.503,7.589
	c-25.434,0-48.751-14.161-60.478-36.73L40.19,343.223c-3.294-6.34-9.726-10.614-16.87-10.719
	c-11.891-0.175-21.011,10.419-19.127,22.113l10.267,63.715C23.159,472.314,69.751,512,124.427,512h131.574
	c-35.555,0-42.227-48.879-32.705-65.106c54.198-92.36,46.511-265.917,46.511-314.683C269.807,83.443,319.259,56.386,333.656,56.386z
	"/>
<g style="opacity:0.1;">
	<circle cx="256.001" cy="203.639" r="7.287"/>
	<circle cx="290.521" cy="235.729" r="7.287"/>
	<circle cx="226.061" cy="361.94" r="7.287"/>
	<circle cx="114.191" cy="468.579" r="7.287"/>
	<circle cx="63.759" cy="432.76" r="7.287"/>
</g>
<g>
	<path style="fill:#485358;" d="M333.656,115.601c-4.143,0-7.5-3.358-7.5-7.5v-12.32c0-4.143,3.357-7.5,7.5-7.5s7.5,3.357,7.5,7.5
		V108.1C341.156,112.243,337.799,115.601,333.656,115.601z"/>
	<path style="fill:#485358;" d="M408.606,115.601c-4.143,0-7.5-3.358-7.5-7.5v-12.32c0-4.143,3.357-7.5,7.5-7.5s7.5,3.357,7.5,7.5
		V108.1C416.106,112.243,412.749,115.601,408.606,115.601z"/>
	<path style="fill:#485358;" d="M442.19,193.764c-9.667,0-18.859-4.186-25.221-11.487c-2.722-3.122-2.396-7.86,0.728-10.581
		c3.122-2.721,7.858-2.395,10.581,0.727c3.512,4.03,8.583,6.342,13.912,6.342s10.4-2.311,13.912-6.342
		c2.72-3.122,7.459-3.448,10.581-0.727c3.123,2.721,3.449,7.459,0.728,10.581C461.05,189.577,451.857,193.764,442.19,193.764z"/>
</g>
<path style="opacity:0.5;fill:#FFFFFF;enable-background:new    ;" d="M337.47,268.44L337.47,268.44
	c-18.966,0-34.919,14.219-37.092,33.06l-10.781,93.471c-2.423,21.005-20.208,36.857-41.353,36.857l0,0
	c-23.59,0-42.714,19.124-42.714,42.714l0,0c0,20.688,16.77,37.458,37.458,37.458h39.079c51.154,0,92.622-41.469,92.622-92.622
	V302.921C373.231,283.627,357.126,268.44,337.47,268.44z"/>
<path style="opacity:0.1;enable-background:new    ;" d="M290.519,386.976h84.17v-15h-82.44L290.519,386.976z M299.242,311.349
	l-1.73,15h77.177v-15H299.242z"/>
<path style="fill:#7DD49B;" d="M215.163,321.07c-0.747,0-1.499-0.026-2.256-0.079c-64.684-4.513-108.437-36.915-130.044-96.307
	c-6.033-16.58,2.518-34.911,19.098-40.943c16.584-6.033,34.913,2.519,40.945,19.1c16.191,44.5,46.72,52.477,74.449,54.411
	c17.601,1.228,30.874,16.491,29.646,34.094C245.825,308.189,231.794,321.07,215.163,321.07z"/>
<path style="opacity:0.15;enable-background:new    ;" d="M215.163,321.07c-0.747,0-1.499-0.026-2.256-0.079
	c-64.684-4.513-108.437-36.915-130.044-96.307c-6.033-16.58,2.518-34.911,19.098-40.943c16.584-6.033,34.913,2.519,40.945,19.1
	c16.191,44.5,46.72,52.477,74.449,54.411c17.601,1.228,30.874,16.491,29.646,34.094C245.825,308.189,231.794,321.07,215.163,321.07z
	"/>
<path style="fill:#7DD49B;" d="M292.876,465.084h-10.294V453.28c0-29.65-24.036-53.686-53.686-53.686l0,0
	c-29.65,0-53.686,24.036-53.686,53.686v18.024c0,22.476,18.22,40.697,40.696,40.697h104.249c5.423,0,9.818-4.396,9.818-9.818
	C329.972,481.693,313.363,465.084,292.876,465.084z"/>
<path style="opacity:0.15;enable-background:new    ;" d="M292.876,465.084h-10.294V453.28c0-29.65-24.036-53.686-53.686-53.686l0,0
	c-29.65,0-53.686,24.036-53.686,53.686v18.024c0,22.476,18.22,40.697,40.696,40.697h104.249c5.423,0,9.818-4.396,9.818-9.818
	C329.972,481.693,313.363,465.084,292.876,465.084z"/>
<g>
</g>
<g>
</g>
<g>
</g>
<g>
</g>
<g>
</g>
<g>
</g>
<g>
</g>
<g>
</g>
<g>
</g>
<g>
</g>
<g>
</g>
<g>
</g>
<g>
</g>
<g>
</g>
<g>
</g>
</svg>
