<?xml version="1.0" encoding="UTF-8" standalone="yes"?>
<svg xmlns="http://www.w3.org/2000/svg" viewBox="0 0 24 24" width="48" height="48" fill="#ffffff">
  <path d="M 12 2 C 8.9883724 2 6.3037203 3.3556682 4.4707031 5.4707031 L 2 3 L 2 9 L 8 9 L 5.8769531 6.8769531 C 7.3450482 5.1245479 9.5396099 4 12 4 C 16.411 4 20 7.589 20 12 L 22 12 C 22 6.486 17.514 2 12 2 z M 2 12 C 2 17.176 5.954 21.446219 11 21.949219 L 11 19.931641 C 7.06 19.436641 4 16.072 4 12 L 2 12 z M 14.75 14 L 11 15.455078 L 11 17.068359 L 13 16.365234 L 13 22 L 15 22 L 15 14 L 14.75 14 z M 19.5 14 C 18.130937 14 17 15.130937 17 16.5 L 17 17 L 19 17 L 19 16.5 C 19 16.213063 19.213063 16 19.5 16 C 19.786937 16 20 16.213063 20 16.5 C 20 16.757858 19.652593 17.557212 19.082031 18.298828 C 18.511469 19.040445 17.791372 19.762633 17.314453 20.210938 L 17 20.507812 L 17 22 L 22 22 L 22 20 L 20.222656 20 C 20.381275 19.814548 20.515452 19.715819 20.667969 19.517578 C 21.347407 18.634445 22 17.683142 22 16.5 C 22 15.130937 20.869063 14 19.5 14 z"/>
</svg>