<?xml version="1.0" encoding="UTF-8" standalone="yes"?>
<svg xmlns="http://www.w3.org/2000/svg" viewBox="0 0 24 24" width="48" height="48" fill="#ffffff">
  <path d="M 12 2 C 8.9883724 2 6.3037203 3.3556682 4.4707031 5.4707031 L 2 3 L 2 9 L 8 9 L 5.8769531 6.8769531 C 7.3450482 5.1245479 9.5396099 4 12 4 C 16.411 4 20 7.589 20 12 C 20 16.411 16.411 20 12 20 C 7.589 20 4 16.411 4 12 L 2 12 C 2 17.514 6.486 22 12 22 C 17.514 22 22 17.514 22 12 C 22 6.486 17.514 2 12 2 z M 12 8 C 10.35503 8 9 9.3550302 9 11 L 9 14 L 9 15 L 9.4160156 15 C 9.8594195 16.106694 10.743378 17 12 17 C 13.256622 17 14.14058 16.106694 14.583984 15 L 15 15 L 15 14 C 15 12.35503 13.64497 11 12 11 C 11.611652 11 11.342014 11.278986 11 11.416016 L 11 11 C 11 10.43497 11.43497 10 12 10 L 14 10 L 14 8 L 12 8 z M 12 13 C 12.56503 13 13 13.43497 13 14 C 13 14.56503 12.56503 15 12 15 C 11.43497 15 11 14.56503 11 14 C 11 13.43497 11.43497 13 12 13 z"/>
</svg>