<?xml version="1.0" encoding="iso-8859-1"?>
<!-- Generator: Adobe Illustrator 19.0.0, SVG Export Plug-In . SVG Version: 6.00 Build 0)  -->
<svg version="1.1" id="Capa_1" xmlns="http://www.w3.org/2000/svg" xmlns:xlink="http://www.w3.org/1999/xlink" x="0px" y="0px"
	 viewBox="0 0 512 512" style="enable-background:new 0 0 512 512;" xml:space="preserve">
<g>
	<path style="fill:#485358;" d="M104.165,284.223H44.322c-4.142,0-7.5-3.357-7.5-7.5s3.358-7.5,7.5-7.5h59.843
		c4.142,0,7.5,3.357,7.5,7.5C111.665,280.865,108.308,284.223,104.165,284.223z"/>
	<path style="fill:#485358;" d="M104.165,348.394H44.322c-4.142,0-7.5-3.357-7.5-7.5s3.358-7.5,7.5-7.5h59.843
		c4.142,0,7.5,3.357,7.5,7.5C111.665,345.036,108.308,348.394,104.165,348.394z"/>
</g>
<path style="fill:#E978A0;" d="M488.799,388.617l-64.742-22.866c-14.467-5.11-30.112-5.881-45.011-2.219l0,0
	c-26.122,6.42-52.924,9.666-79.824,9.666H116.185c-6.638,0-12.02-5.381-12.02-12.02v-104.74c0-6.638,5.381-12.02,12.02-12.02
	h183.037c26.9,0,53.701,3.245,79.824,9.666l0,0c14.9,3.662,30.544,2.891,45.011-2.219l64.742-22.866
	c11.325-4,23.201,4.401,23.201,16.411v126.794C512,384.215,500.123,392.616,488.799,388.617z"/>
<g style="opacity:0.1;">
	<path d="M435.002,299.913c-3,0-5.832-1.811-6.988-4.775c-1.507-3.858,0.4-8.207,4.26-9.713l49.755-19.42
		c3.859-1.506,8.207,0.4,9.713,4.26c1.507,3.858-0.4,8.207-4.26,9.713l-49.755,19.42
		C436.831,299.747,435.908,299.913,435.002,299.913z"/>
	<path d="M484.753,352.127c-0.907,0-1.829-0.166-2.725-0.516l-49.755-19.42c-3.859-1.506-5.767-5.854-4.26-9.713
		c1.506-3.859,5.856-5.766,9.713-4.26l49.755,19.42c3.859,1.506,5.767,5.854,4.26,9.713
		C490.585,350.315,487.753,352.127,484.753,352.127z"/>
</g>
<circle style="fill:#C06376;" cx="299.87" cy="301.56" r="42.2"/>
<path style="fill:#F0BDD5;" d="M390.073,255.972c-3.702-0.367-7.387-0.993-11.028-1.887c-10.843-2.665-21.808-4.75-32.844-6.316
	c-15.711,6.143-26.846,21.42-26.846,39.307c0,23.307,18.894,42.201,42.201,42.201c23.307,0,42.201-18.894,42.201-42.201
	C403.758,274.763,398.483,263.686,390.073,255.972z"/>
<path style="fill:#E978A0;" d="M367.516,251.488c-22.454-4.684-45.336-7.069-68.294-7.069H286.59
	c-1.76,4.646-2.732,9.681-2.732,14.944c0,23.307,18.894,42.201,42.201,42.201s42.201-18.894,42.201-42.201
	C368.261,256.67,367.998,254.04,367.516,251.488z"/>
<g>
	<path style="fill:#F0BDD5;" d="M301.754,244.457c-0.844-0.006-1.687-0.038-2.532-0.038h-76.423
		c-1.76,4.646-2.732,9.681-2.732,14.944c0,23.307,18.894,42.201,42.201,42.201s42.201-18.894,42.201-42.201
		C304.47,254.114,303.505,249.092,301.754,244.457z"/>
	<path style="fill:#F0BDD5;" d="M212.878,352.932l-16.464-8.872l6.125-28.899l18.647-1.43c9.967-0.764,17.872,8.262,15.799,18.042
		l-2.348,11.079C232.566,352.631,221.678,357.675,212.878,352.932z"/>
</g>
<path style="fill:#C06376;" d="M116.185,244.419c-6.638,0-12.02,5.381-12.02,12.02v104.74c0,6.638,5.381,12.02,12.02,12.02h51.694
	c28.025-17.551,47.435-47.586,50.438-82.32c24.388-4.987,44.026-23.004,51.338-46.459L116.185,244.419L116.185,244.419z"/>
<path style="opacity:0.1;enable-background:new    ;" d="M488.799,370.189l-64.742-22.866c-14.467-5.109-30.112-5.881-45.011-2.219
	c-26.122,6.42-52.924,9.666-79.824,9.666H234.02c-84.414-3.373-64.52-101.27-33.52-110.351h-84.315
	c-6.638,0-12.02,5.381-12.02,12.02v104.74c0,6.638,5.381,12.02,12.02,12.02h183.037c26.9,0,53.701-3.245,79.824-9.666
	c14.899-3.662,30.544-2.891,45.011,2.219l64.742,22.866c11.325,4,23.201-4.401,23.201-16.411V353.78
	C512,365.788,500.123,374.189,488.799,370.189z"/>
<path style="fill:#485358;" d="M156.507,309.064c-4.142,0-7.5-3.357-7.5-7.5v-14.488c0-4.143,3.358-7.5,7.5-7.5s7.5,3.357,7.5,7.5
	v14.488C164.007,305.706,160.649,309.064,156.507,309.064z"/>
<path style="opacity:0.1;enable-background:new    ;" d="M116.185,373.197c6.638,0,12.019-5.381,12.019-12.02v-104.74
	c0-6.638-5.381-12.02-12.019-12.02s-12.02,5.381-12.02,12.02v104.74C104.166,367.816,109.547,373.197,116.185,373.197z"/>
<g>
	<path style="fill:#485358;" d="M104.165,94.494H44.322c-4.142,0-7.5-3.357-7.5-7.5s3.358-7.5,7.5-7.5h59.843
		c4.142,0,7.5,3.357,7.5,7.5C111.665,91.137,108.308,94.494,104.165,94.494z"/>
	<path style="fill:#485358;" d="M104.165,158.664H44.322c-4.142,0-7.5-3.357-7.5-7.5s3.358-7.5,7.5-7.5h59.843
		c4.142,0,7.5,3.357,7.5,7.5C111.665,155.307,108.308,158.664,104.165,158.664z"/>
</g>
<path style="fill:#51B4DB;" d="M488.799,198.888l-64.742-22.866c-14.467-5.11-30.112-5.881-45.011-2.219l0,0
	c-26.122,6.42-52.924,9.665-79.824,9.665H116.185c-6.638,0-12.02-5.381-12.02-12.019V66.709c0-6.638,5.381-12.019,12.02-12.019
	h183.037c26.9,0,53.701,3.245,79.824,9.666l0,0c14.9,3.662,30.544,2.891,45.011-2.219l64.742-22.866
	c11.325-4,23.201,4.401,23.201,16.411v126.794C512,194.486,500.123,202.887,488.799,198.888z"/>
<g style="opacity:0.1;">
	<path d="M435.002,110.185c-3,0-5.832-1.812-6.988-4.775c-1.507-3.858,0.4-8.207,4.26-9.713l49.755-19.42
		c3.859-1.507,8.207,0.4,9.713,4.26c1.507,3.858-0.4,8.207-4.26,9.713l-49.755,19.42
		C436.831,110.019,435.908,110.185,435.002,110.185z"/>
	<path d="M484.753,162.398c-0.907,0-1.829-0.166-2.725-0.516l-49.755-19.42c-3.859-1.506-5.767-5.854-4.26-9.713
		c1.506-3.859,5.856-5.767,9.713-4.26l49.755,19.42c3.859,1.506,5.767,5.855,4.26,9.713
		C490.585,160.585,487.753,162.398,484.753,162.398z"/>
</g>
<circle style="fill:#4D94AE;" cx="299.87" cy="111.83" r="42.2"/>
<path style="fill:#88DEDC;" d="M390.073,66.243c-3.702-0.367-7.387-0.993-11.028-1.887c-10.843-2.665-21.808-4.75-32.844-6.316
	c-15.711,6.143-26.846,21.42-26.846,39.307c0,23.307,18.894,42.201,42.201,42.201c23.307,0,42.201-18.894,42.201-42.201
	C403.758,85.035,398.483,73.957,390.073,66.243z"/>
<path style="fill:#51B4DB;" d="M367.516,61.759c-22.454-4.684-45.336-7.069-68.294-7.069H286.59
	c-1.76,4.646-2.732,9.681-2.732,14.944c0,23.307,18.894,42.201,42.201,42.201s42.201-18.894,42.201-42.201
	C368.261,66.941,367.998,64.311,367.516,61.759z"/>
<g>
	<path style="fill:#88DEDC;" d="M301.754,54.728c-0.844-0.006-1.687-0.038-2.532-0.038h-76.423
		c-1.76,4.646-2.732,9.681-2.732,14.944c0,23.307,18.894,42.201,42.201,42.201s42.201-18.894,42.201-42.201
		C304.47,64.385,303.505,59.364,301.754,54.728z"/>
	<path style="fill:#88DEDC;" d="M212.878,163.204l-16.464-8.872l6.125-28.899l18.647-1.43c9.967-0.764,17.872,8.263,15.799,18.042
		l-2.348,11.079C232.566,162.902,221.678,167.946,212.878,163.204z"/>
</g>
<path style="fill:#4D94AE;" d="M116.185,54.69c-6.638,0-12.02,5.381-12.02,12.019v104.74c0,6.638,5.381,12.02,12.02,12.02h51.694
	c28.025-17.551,47.435-47.586,50.438-82.32c24.388-4.987,44.026-23.004,51.338-46.459L116.185,54.69L116.185,54.69z"/>
<path style="opacity:0.1;enable-background:new    ;" d="M488.799,180.46l-64.742-22.866c-14.467-5.11-30.112-5.881-45.011-2.219
	c-26.122,6.42-52.924,9.666-79.824,9.666H234.02c-84.414-3.373-64.52-101.27-33.52-110.351h-84.315
	c-6.638,0-12.02,5.381-12.02,12.019v104.74c0,6.638,5.381,12.019,12.02,12.019h183.037c26.9,0,53.701-3.245,79.824-9.665
	c14.899-3.662,30.544-2.891,45.011,2.219l64.742,22.866c11.325,4,23.201-4.401,23.201-16.411V164.05
	C512,176.059,500.123,184.46,488.799,180.46z"/>
<path style="fill:#485358;" d="M156.507,119.335c-4.142,0-7.5-3.357-7.5-7.5V97.347c0-4.143,3.358-7.5,7.5-7.5s7.5,3.357,7.5,7.5
	v14.488C164.007,115.978,160.649,119.335,156.507,119.335z"/>
<path style="opacity:0.1;enable-background:new    ;" d="M116.185,183.468c6.638,0,12.019-5.381,12.019-12.019V66.709
	c0-6.638-5.381-12.019-12.019-12.019s-12.02,5.381-12.02,12.019v104.74C104.166,178.087,109.547,183.468,116.185,183.468z"/>
<path style="fill:#F3CE72;" d="M32.256,512h-20.19C5.402,512,0,506.598,0,499.934V22.161C0,9.922,9.922,0,22.161,0l0,0
	C34.4,0,44.322,9.922,44.322,22.161v477.773C44.322,506.598,38.92,512,32.256,512z"/>
<path style="opacity:0.1;enable-background:new    ;" d="M14.629,499.934V22.161c0-9.672,6.207-17.875,14.847-20.9
	C27.183,0.459,24.728,0,22.161,0l0,0C9.922,0,0,9.922,0,22.161v477.773C0,506.598,5.402,512,12.066,512h14.629
	C20.031,512,14.629,506.598,14.629,499.934z"/>
<g>
</g>
<g>
</g>
<g>
</g>
<g>
</g>
<g>
</g>
<g>
</g>
<g>
</g>
<g>
</g>
<g>
</g>
<g>
</g>
<g>
</g>
<g>
</g>
<g>
</g>
<g>
</g>
<g>
</g>
</svg>
