<?xml version="1.0" encoding="UTF-8" standalone="yes"?>
<svg xmlns="http://www.w3.org/2000/svg" xmlns:xlink="http://www.w3.org/1999/xlink" viewBox="0 0 50 50" version="1.1" width="48" height="48" fill="#ffffff">
  <g id="surface1">
    <path style=" " d="M 12 0 C 10.90625 0 10 0.90625 10 2 L 10 4 L 4 4 C 2.839844 4 2 4.839844 2 6 L 2 13 L 48 13 L 48 6 C 48 4.839844 47.160156 4 46 4 L 40 4 L 40 2 C 40 0.90625 39.09375 0 38 0 L 36 0 C 34.90625 0 34 0.90625 34 2 L 34 4 L 16 4 L 16 2 C 16 0.90625 15.09375 0 14 0 Z M 12 2 L 14 2 L 14 8 L 12 8 Z M 36 2 L 38 2 L 38 8 L 36 8 Z M 2 15 L 2 46 C 2 47.105469 2.894531 48 4 48 L 46 48 C 47.105469 48 48 47.105469 48 46 L 48 15 Z M 23.40625 23.199219 L 25.105469 23.199219 L 25.105469 34.527344 L 22.800781 34.527344 L 22.800781 26.527344 L 20.546875 26.527344 L 20.546875 25.023438 L 20.75 25.023438 C 21.519531 25.023438 22.125 24.878906 22.566406 24.59375 C 23.011719 24.304688 23.289063 23.839844 23.40625 23.199219 Z M 32.625 25.695313 C 33.136719 25.695313 33.566406 25.816406 33.910156 26.046875 C 34.257813 26.285156 34.488281 26.625 34.609375 27.074219 L 34.640625 27.074219 C 34.8125 26.613281 35.085938 26.269531 35.464844 26.039063 C 35.84375 25.808594 36.292969 25.695313 36.816406 25.695313 C 37.550781 25.695313 38.09375 25.917969 38.4375 26.359375 C 38.785156 26.800781 38.960938 27.441406 38.960938 28.269531 L 38.960938 34.527344 L 36.75 34.527344 L 36.75 28.511719 C 36.75 28.148438 36.6875 27.871094 36.550781 27.679688 C 36.417969 27.488281 36.199219 27.390625 35.890625 27.390625 C 35.535156 27.390625 35.257813 27.511719 35.046875 27.746094 C 34.839844 27.980469 34.734375 28.351563 34.734375 28.863281 L 34.734375 34.527344 L 32.527344 34.527344 L 32.527344 28.511719 C 32.527344 28.148438 32.460938 27.871094 32.328125 27.679688 C 32.195313 27.488281 31.972656 27.390625 31.664063 27.390625 C 31.3125 27.390625 31.03125 27.511719 30.824219 27.746094 C 30.617188 27.980469 30.511719 28.351563 30.511719 28.863281 L 30.511719 34.527344 L 28.304688 34.527344 L 28.304688 25.921875 L 30.417969 25.921875 L 30.417969 26.800781 L 30.449219 26.800781 C 30.722656 26.40625 31.039063 26.121094 31.386719 25.953125 C 31.730469 25.78125 32.144531 25.695313 32.625 25.695313 Z M 14.09375 26.433594 L 16.078125 26.433594 L 16.078125 29.488281 L 19.136719 29.488281 L 19.136719 31.472656 L 16.078125 31.472656 L 16.078125 34.527344 L 14.09375 34.527344 L 14.09375 31.472656 L 11.039063 31.472656 L 11.039063 29.488281 L 14.09375 29.488281 Z "/>
  </g>
</svg>