<?xml version="1.0" encoding="UTF-8" standalone="yes"?>
<svg xmlns="http://www.w3.org/2000/svg" viewBox="0 0 50 50" width="48" height="48" fill="#ffffff">
  <path style="line-height:normal;text-indent:0;text-align:start;text-decoration-line:none;text-decoration-style:solid;text-decoration-color:#ffffff;text-transform:none;block-progression:tb;isolation:auto;mix-blend-mode:normal" d="M 12 0 C 10.906937 0 10 0.9069372 10 2 L 10 4 L 4 4 C 2.841 4 2 4.841 2 6 L 2 13 L 48 13 L 48 6 C 48 4.841 47.159 4 46 4 L 40 4 L 40 2 C 40 0.9069372 39.093063 0 38 0 L 36 0 C 34.906937 0 34 0.9069372 34 2 L 34 4 L 16 4 L 16 2 C 16 0.9069372 15.093063 0 14 0 L 12 0 z M 12 2 L 14 2 L 14 8 L 12 8 L 12 2 z M 36 2 L 38 2 L 38 8 L 36 8 L 36 2 z M 2 15 L 2 46 C 2 47.105 2.895 48 4 48 L 46 48 C 47.105 48 48 47.105 48 46 L 48 15 L 2 15 z M 22.613281 23.625 L 24.310547 23.625 L 24.310547 35 L 22 35 L 22 27 L 19.75 27 L 19.75 25.457031 L 19.957031 25.457031 C 20.725031 25.457031 21.331438 25.312438 21.773438 25.023438 C 22.215438 24.734437 22.495281 24.268 22.613281 23.625 z M 26.625 26 L 28.980469 26 L 30.289062 32.455078 L 30.431641 32.455078 L 31.972656 26 L 34.191406 26 L 35.740234 32.455078 L 35.884766 32.455078 L 37.193359 26 L 39.5 26 L 37.160156 35 L 34.6875 35 L 33.115234 28.789062 L 32.970703 28.789062 L 31.414062 35 L 28.972656 35 L 26.625 26 z M 13.384766 27 L 15.335938 27 L 15.335938 30 L 18.34375 30 L 18.34375 32 L 15.335938 32 L 15.335938 35 L 13.384766 35 L 13.384766 32 L 10.376953 32 L 10.376953 30 L 13.384766 30 L 13.384766 27 z" font-weight="400" font-family="sans-serif" white-space="normal" overflow="visible"/>
</svg>