<?xml version="1.0" encoding="UTF-8" standalone="yes"?>
<svg xmlns="http://www.w3.org/2000/svg" viewBox="0 0 24 24" width="48" height="48" fill="#ffffff">
  <path d="M 12 2 C 8.9883724 2 6.3037203 3.3556682 4.4707031 5.4707031 L 2 3 L 2 9 L 8 9 L 5.8769531 6.8769531 C 7.3450482 5.1245479 9.5396099 4 12 4 C 16.411 4 20 7.589 20 12 L 22 12 C 22 6.486 17.514 2 12 2 z M 2 12 C 2 16.091 4.474 19.607297 8 21.154297 L 8 18.910156 C 5.613 17.526156 4 14.952 4 12 L 2 12 z M 12.5 14 C 11.130937 14 10 15.130937 10 16.5 L 10 17 L 12 17 L 12 16.5 C 12 16.213063 12.213063 16 12.5 16 C 12.786937 16 13 16.213063 13 16.5 C 13 16.757858 12.652593 17.557212 12.082031 18.298828 C 11.511469 19.040445 10.791372 19.762633 10.314453 20.210938 L 10 20.507812 L 10 22 L 15 22 L 15 20 L 13.222656 20 C 13.381275 19.814548 13.515452 19.715819 13.667969 19.517578 C 14.347407 18.634445 15 17.683142 15 16.5 C 15 15.130937 13.869063 14 12.5 14 z M 17 14 L 17 20 L 20 20 L 20 22 L 22 22 L 22 14 L 20 14 L 20 18 L 19 18 L 19 14 L 17 14 z"/>
</svg>